<?xml version="1.0" encoding="UTF-8"?>
<!-- Cultura UI: minimal stroke icons (24×24, currentColor). Replaces Streamline capsule-style paths with simple line art. -->
<svg xmlns="http://www.w3.org/2000/svg" width="0" height="0" style="position:absolute;overflow:hidden;clip:rect(0,0,0,0)">
<symbol id="ch-layout-sidebar" viewBox="0 0 24 24">
  <rect x="4" y="5" width="16" height="14" rx="2" fill="none" stroke="currentColor" stroke-width="1.5"/>
  <path fill="none" stroke="currentColor" stroke-width="1.5" stroke-linecap="round" d="M9 5v14"/>
</symbol>
<symbol id="ch-house" viewBox="0 0 24 24">
  <path fill="none" stroke="currentColor" stroke-width="1.5" stroke-linecap="round" stroke-linejoin="round" d="M4 10.5 12 3.5 20 10.5M6 9.5V20h12V9.5"/>
  <path fill="none" stroke="currentColor" stroke-width="1.5" stroke-linecap="round" stroke-linejoin="round" d="M9.5 20v-6.5a2.5 2.5 0 0 1 2.5-2.5h0a2.5 2.5 0 0 1 2.5 2.5V20"/>
</symbol>
<symbol id="ch-chat" viewBox="0 0 24 24">
  <path fill="none" stroke="currentColor" stroke-width="1.5" stroke-linecap="round" stroke-linejoin="round" d="M4.5 18.5 4.5 8a2.5 2.5 0 0 1 2.5-2.5h10A2.5 2.5 0 0 1 19.5 8v6.5a2.5 2.5 0 0 1-2.5 2.5H10l-5.5 3.5V18.5z"/>
  <path fill="none" stroke="currentColor" stroke-width="1.5" stroke-linecap="round" d="M8.5 10.5h7M8.5 13.5h4"/>
</symbol>
<symbol id="ch-file-graph" viewBox="0 0 24 24">
  <path fill="none" stroke="currentColor" stroke-width="1.5" stroke-linecap="round" stroke-linejoin="round" d="M14.5 2.5H7a2 2 0 0 0-2 2v15a2 2 0 0 0 2 2h10a2 2 0 0 0 2-2V7.5l-4.5-5z"/>
  <path fill="none" stroke="currentColor" stroke-width="1.5" stroke-linecap="round" stroke-linejoin="round" d="M14 2.5v5h5M8 16.5l2.5-3 2 2.5 3.5-5"/>
</symbol>
<symbol id="ch-graph-up" viewBox="0 0 24 24">
  <path fill="none" stroke="currentColor" stroke-width="1.5" stroke-linecap="round" stroke-linejoin="round" d="M4 20V4M4 20h16"/>
  <path fill="none" stroke="currentColor" stroke-width="1.5" stroke-linecap="round" stroke-linejoin="round" d="M7 16l4-4 3 3 5-6"/>
</symbol>
<symbol id="ch-people" viewBox="0 0 24 24">
  <path fill="none" stroke="currentColor" stroke-width="1.5" stroke-linecap="round" stroke-linejoin="round" d="M5.5 9.5a2.5 2.5 0 1 0 0-5 2.5 2.5 0 0 0 0 5zM18.5 9.5a2.5 2.5 0 1 0 0-5 2.5 2.5 0 0 0 0 5z"/>
  <path fill="none" stroke="currentColor" stroke-width="1.5" stroke-linecap="round" stroke-linejoin="round" d="M2 20.5v-1a4 4 0 0 1 4-4h3"/>
  <path fill="none" stroke="currentColor" stroke-width="1.5" stroke-linecap="round" stroke-linejoin="round" d="M22 20.5v-1a4 4 0 0 0-4-4h-3"/>
  <path fill="none" stroke="currentColor" stroke-width="1.5" stroke-linecap="round" stroke-linejoin="round" d="M12 11a3 3 0 1 0 0-6 3 3 0 0 0 0 6z"/>
  <path fill="none" stroke="currentColor" stroke-width="1.5" stroke-linecap="round" stroke-linejoin="round" d="M8.5 20.5v-1a3.5 3.5 0 0 1 3.5-3.5h0a3.5 3.5 0 0 1 3.5 3.5v1"/>
</symbol>
<symbol id="ch-megaphone" viewBox="0 0 24 24">
  <path fill="none" stroke="currentColor" stroke-width="1.5" stroke-linecap="round" stroke-linejoin="round" d="M6 10v6l-3 1.5V8.5L6 10z"/>
  <path fill="none" stroke="currentColor" stroke-width="1.5" stroke-linecap="round" stroke-linejoin="round" d="M6 10l10-4v12L6 14"/>
  <path fill="none" stroke="currentColor" stroke-width="1.5" stroke-linecap="round" d="M20 8v8"/>
</symbol>
<symbol id="ch-list-ul" viewBox="0 0 24 24">
  <path fill="none" stroke="currentColor" stroke-width="1.5" stroke-linecap="round" d="M9.5 6.5h12M9.5 12h12M9.5 17.5h12"/>
  <circle cx="5.5" cy="6.5" r="1" fill="none" stroke="currentColor" stroke-width="1.5"/>
  <circle cx="5.5" cy="12" r="1" fill="none" stroke="currentColor" stroke-width="1.5"/>
  <circle cx="5.5" cy="17.5" r="1" fill="none" stroke="currentColor" stroke-width="1.5"/>
</symbol>
<symbol id="ch-cloud-upload" viewBox="0 0 24 24">
  <path fill="none" stroke="currentColor" stroke-width="1.5" stroke-linecap="round" stroke-linejoin="round" d="M7.5 18a4.5 4.5 0 0 1 0-9 1 1 0 0 0 1-1 6 6 0 0 1 11.4 2.4A3.5 3.5 0 0 1 17.5 18"/>
  <path fill="none" stroke="currentColor" stroke-width="1.5" stroke-linecap="round" stroke-linejoin="round" d="M12 11.5V21M9 14.5l3-3 3 3"/>
</symbol>
<symbol id="ch-folder" viewBox="0 0 24 24">
  <path fill="none" stroke="currentColor" stroke-width="1.5" stroke-linecap="round" stroke-linejoin="round" d="M4.5 6.5h5l1.5 2h9a2 2 0 0 1 2 2v9a2 2 0 0 1-2 2h-15.5a2 2 0 0 1-2-2V8.5a2 2 0 0 1 2-2z"/>
</symbol>
<symbol id="ch-diagram" viewBox="0 0 24 24">
  <path fill="none" stroke="currentColor" stroke-width="1.5" stroke-linejoin="round" d="M3 14.5h6v6H3zM15 14.5h6v6h-6zM9 3.5h6v6H9z"/>
  <path fill="none" stroke="currentColor" stroke-width="1.5" stroke-linecap="round" d="M12 9.5v2M9 14.5h6"/>
</symbol>
<symbol id="ch-gear" viewBox="0 0 24 24">
  <path fill="none" stroke="currentColor" stroke-width="1.5" stroke-linecap="round" d="M12 15a3 3 0 1 0 0-6 3 3 0 0 0 0 6z"/>
  <path fill="none" stroke="currentColor" stroke-width="1.5" stroke-linecap="round" d="M12 1.75v2.5M12 19.75v2.5M4.81 4.81l1.77 1.77M17.42 17.42l1.77 1.77M1.75 12h2.5M19.75 12h2.5M4.81 19.19l1.77-1.77M17.42 6.58l1.77-1.77"/>
</symbol>
<symbol id="ch-grid" viewBox="0 0 24 24">
  <path fill="none" stroke="currentColor" stroke-width="1.5" stroke-linejoin="round" d="M3.5 3.5h7v7h-7zM13.5 3.5h7v7h-7zM3.5 13.5h7v7h-7zM13.5 13.5h7v7h-7z"/>
</symbol>
<symbol id="ch-arrow-up-circle" viewBox="0 0 24 24">
  <path fill="none" stroke="currentColor" stroke-width="1.5" d="M12 21.5a9.5 9.5 0 1 0 0-19 9.5 9.5 0 0 0 0 19z"/>
  <path fill="none" stroke="currentColor" stroke-width="1.5" stroke-linecap="round" stroke-linejoin="round" d="M12 16.5V8M8.5 11.5 12 8l3.5 3.5"/>
</symbol>
<symbol id="ch-menu" viewBox="0 0 24 24">
  <path fill="none" stroke="currentColor" stroke-width="1.5" stroke-linecap="round" stroke-linejoin="round" d="M3 6h18M3 12h18M3 18h18"/>
</symbol>
<symbol id="ch-search" viewBox="0 0 24 24">
  <path fill="none" stroke="currentColor" stroke-width="1.5" d="M10.25 18.5a8.25 8.25 0 1 1 0-16.5 8.25 8.25 0 0 1 0 16.5z"/>
  <path fill="none" stroke="currentColor" stroke-width="1.5" stroke-linecap="round" d="M16.5 16.5 21 21"/>
</symbol>
<symbol id="ch-bell" viewBox="0 0 24 24">
  <path fill="none" stroke="currentColor" stroke-width="1.5" stroke-linecap="round" stroke-linejoin="round" d="M18 16.5H6l1.5-2V10a4.5 4.5 0 0 1 9 0v4.5l1.5 2z"/>
  <path fill="none" stroke="currentColor" stroke-width="1.5" stroke-linecap="round" d="M10.5 20.5h3M12 3.5V5"/>
</symbol>
<symbol id="ch-help" viewBox="0 0 24 24">
  <path fill="none" stroke="currentColor" stroke-width="1.5" d="M12 21.5a9.5 9.5 0 1 0 0-19 9.5 9.5 0 0 0 0 19z"/>
  <path fill="none" stroke="currentColor" stroke-width="1.5" stroke-linecap="round" d="M10 8c0-1.5 1.2-2.5 2.5-2.5S15 6.5 15 8s-2 2-2 3.5V13"/>
  <path fill="none" stroke="currentColor" stroke-width="1.5" stroke-linecap="round" d="M12 16v.5"/>
</symbol>
<symbol id="ch-chevron-down" viewBox="0 0 24 24">
  <path fill="none" stroke="currentColor" stroke-width="1.5" stroke-linecap="round" stroke-linejoin="round" d="M6 9l6 6 6-6"/>
</symbol>
<symbol id="ch-chevron-right" viewBox="0 0 24 24">
  <path fill="none" stroke="currentColor" stroke-width="1.5" stroke-linecap="round" stroke-linejoin="round" d="M9 6l6 6-6 6"/>
</symbol>
<symbol id="ch-chevron-left" viewBox="0 0 24 24">
  <path fill="none" stroke="currentColor" stroke-width="1.5" stroke-linecap="round" stroke-linejoin="round" d="M15 6l-6 6 6 6"/>
</symbol>
<symbol id="ch-lightning" viewBox="0 0 24 24">
  <path fill="none" stroke="currentColor" stroke-width="1.5" stroke-linecap="round" stroke-linejoin="round" d="M13 2.5 4 14.5h7l-1 7 9-12h-7l1-7z"/>
</symbol>
<symbol id="ch-file-earmark" viewBox="0 0 24 24">
  <path fill="none" stroke="currentColor" stroke-width="1.5" stroke-linecap="round" stroke-linejoin="round" d="M14.5 2.5H7a2 2 0 0 0-2 2v15a2 2 0 0 0 2 2h10a2 2 0 0 0 2-2V7.5l-4.5-5z"/>
  <path fill="none" stroke="currentColor" stroke-width="1.5" stroke-linecap="round" d="M14 2.5v5h5M8 12.5h8M8 16.5h8"/>
</symbol>
<symbol id="ch-arrow-up-right" viewBox="0 0 24 24">
  <path fill="none" stroke="currentColor" stroke-width="1.5" stroke-linecap="round" stroke-linejoin="round" d="M7 17 17 7M10 7h7v7"/>
</symbol>
<symbol id="ch-file-plus" viewBox="0 0 24 24">
  <path fill="none" stroke="currentColor" stroke-width="1.5" stroke-linecap="round" stroke-linejoin="round" d="M14.5 2.5H7a2 2 0 0 0-2 2v15a2 2 0 0 0 2 2h10a2 2 0 0 0 2-2V7.5l-4.5-5z"/>
  <path fill="none" stroke="currentColor" stroke-width="1.5" stroke-linecap="round" d="M14 2.5v5h5M12 11.5v6M9 14.5h6"/>
</symbol>
<symbol id="ch-person-badge" viewBox="0 0 24 24">
  <path fill="none" stroke="currentColor" stroke-width="1.5" stroke-linecap="round" stroke-linejoin="round" d="M12 11a3 3 0 1 0 0-6 3 3 0 0 0 0 6zM5 20.5v-1a4 4 0 0 1 4-4h6a4 4 0 0 1 4 4v1"/>
  <path fill="none" stroke="currentColor" stroke-width="1.5" d="M17.5 6.5a2 2 0 1 0 0-4 2 2 0 0 0 0 4z"/>
</symbol>
<symbol id="ch-upload" viewBox="0 0 24 24">
  <path fill="none" stroke="currentColor" stroke-width="1.5" stroke-linecap="round" stroke-linejoin="round" d="M4.5 14.5v5a2 2 0 0 0 2 2h11a2 2 0 0 0 2-2v-5"/>
  <path fill="none" stroke="currentColor" stroke-width="1.5" stroke-linecap="round" stroke-linejoin="round" d="M8 10.5 12 6.5l4 4M12 6.5v11"/>
</symbol>
<symbol id="ch-paperclip" viewBox="0 0 24 24">
  <path fill="none" stroke="currentColor" stroke-width="1.5" stroke-linecap="round" stroke-linejoin="round" d="M21.5 11.5l-9.3 9.3a4 4 0 0 1-5.66-5.66l9.2-9.2a2.5 2.5 0 0 1 3.54 3.54l-9 9a1.5 1.5 0 0 1-2.12-2.12l8.2-8.2"/>
</symbol>
<symbol id="ch-mic" viewBox="0 0 24 24">
  <path fill="none" stroke="currentColor" stroke-width="1.5" stroke-linecap="round" stroke-linejoin="round" d="M12 15a3 3 0 0 0 3-3V6a3 3 0 1 0-6 0v6a3 3 0 0 0 3 3z"/>
  <path fill="none" stroke="currentColor" stroke-width="1.5" stroke-linecap="round" d="M19 10.5v1a7 7 0 0 1-14 0v-1M12 19v2.5"/>
</symbol>
<symbol id="ch-bookmarks" viewBox="0 0 24 24">
  <path fill="none" stroke="currentColor" stroke-width="1.5" stroke-linejoin="round" d="M6.5 3.5h11v17l-5.5-3.5-5.5 3.5z"/>
  <path fill="none" stroke="currentColor" stroke-width="1.5" stroke-linecap="round" d="M9.5 8.5h5M9.5 12h5"/>
</symbol>
<symbol id="ch-send" viewBox="0 0 24 24">
  <path fill="none" stroke="currentColor" stroke-width="1.5" stroke-linecap="round" stroke-linejoin="round" d="M22 2 11 13"/>
  <path fill="none" stroke="currentColor" stroke-width="1.5" stroke-linejoin="round" d="M22 2 15 22l-4-9-9-4 20-7z"/>
</symbol>
<symbol id="ch-check" viewBox="0 0 24 24">
  <path fill="none" stroke="currentColor" stroke-width="1.5" stroke-linecap="round" stroke-linejoin="round" d="M20 6 9 17l-5-5"/>
</symbol>
<symbol id="ch-check-circle" viewBox="0 0 24 24">
  <path fill="none" stroke="currentColor" stroke-width="1.5" d="M12 21.5a9.5 9.5 0 1 0 0-19 9.5 9.5 0 0 0 0 19z"/>
  <path fill="none" stroke="currentColor" stroke-width="1.5" stroke-linecap="round" stroke-linejoin="round" d="M8 12l2.5 2.5L16 9"/>
</symbol>
<symbol id="ch-plus" viewBox="0 0 24 24">
  <path fill="none" stroke="currentColor" stroke-width="1.5" stroke-linecap="round" d="M12 5v14M5 12h14"/>
</symbol>
<symbol id="ch-alert-octagon" viewBox="0 0 24 24">
  <path fill="none" stroke="currentColor" stroke-width="1.5" stroke-linejoin="round" d="M7.86 2.5h8.28L21.5 7.86v8.28L16.14 21.5H7.86L2.5 16.14V7.86L7.86 2.5z"/>
  <path fill="none" stroke="currentColor" stroke-width="1.5" stroke-linecap="round" d="M12 8.5v5"/>
  <circle cx="12" cy="17" r="1" fill="none" stroke="currentColor" stroke-width="1.5"/>
</symbol>
<symbol id="ch-file-csv" viewBox="0 0 24 24">
  <path fill="none" stroke="currentColor" stroke-width="1.5" stroke-linecap="round" stroke-linejoin="round" d="M14.5 2.5H7a2 2 0 0 0-2 2v15a2 2 0 0 0 2 2h10a2 2 0 0 0 2-2V7.5l-4.5-5z"/>
  <path fill="none" stroke="currentColor" stroke-width="1.5" stroke-linecap="round" d="M14 2.5v5h5M6 9l2 6M8 9 6 15M10 9v6M14 12h4M14 15h3"/>
</symbol>
<symbol id="ch-pin" viewBox="0 0 24 24">
  <path fill="none" stroke="currentColor" stroke-width="1.5" stroke-linecap="round" stroke-linejoin="round" d="M12 21s7-4.35 7-10a7 7 0 1 0-14 0c0 5.65 7 10 7 10z"/>
  <circle cx="12" cy="9.5" r="2" fill="none" stroke="currentColor" stroke-width="1.5"/>
</symbol>
<symbol id="ch-phone" viewBox="0 0 24 24">
  <path fill="none" stroke="currentColor" stroke-width="1.5" stroke-linejoin="round" d="M8.5 2.5h7a2 2 0 0 1 2 2v15a2 2 0 0 1-2 2h-7a2 2 0 0 1-2-2v-15a2 2 0 0 1 2-2z"/>
  <circle cx="10" cy="5.5" r="1" fill="none" stroke="currentColor" stroke-width="1.5"/>
  <circle cx="10" cy="18.5" r="1" fill="none" stroke="currentColor" stroke-width="1.5"/>
</symbol>
<symbol id="ch-instagram" viewBox="0 0 24 24">
  <path fill="none" stroke="currentColor" stroke-width="1.5" stroke-linejoin="round" d="M7.5 2.5h9a5 5 0 0 1 5 5v9a5 5 0 0 1-5 5h-9a5 5 0 0 1-5-5v-9a5 5 0 0 1 5-5z"/>
  <circle cx="12" cy="12" r="4" fill="none" stroke="currentColor" stroke-width="1.5"/>
  <circle cx="17.5" cy="6.5" r="1" fill="none" stroke="currentColor" stroke-width="1.5"/>
</symbol>
<symbol id="ch-youtube" viewBox="0 0 24 24">
  <path fill="none" stroke="currentColor" stroke-width="1.5" stroke-linejoin="round" d="M22.5 8.5c0-1.5-.8-2.6-2-2.8-2.3-.4-8.5-.4-8.5-.4s-6.2 0-8.5.4c-1.2.2-2 1.3-2 2.8 0 1.7-.3 8.6 0 10.1.2 1.2 1 2.1 2.2 2.3 2.1.3 8.3.3 8.3.3s6.2 0 8.5-.4c1.2-.2 2-1.1 2-2.6.3-2.4 0-8.4 0-10.1z"/>
  <path fill="none" stroke="currentColor" stroke-width="1.5" stroke-linejoin="round" d="M10 9.5v6l5.5-3-5.5-3z"/>
</symbol>
<symbol id="ch-tiktok" viewBox="0 0 24 24">
  <path fill="none" stroke="currentColor" stroke-width="1.5" stroke-linecap="round" stroke-linejoin="round" d="M16.5 3v11a3.5 3.5 0 1 1-3.5-3.5"/>
  <path fill="none" stroke="currentColor" stroke-width="1.5" stroke-linecap="round" d="M13 3a5.5 5.5 0 0 0 5.5 5.5"/>
</symbol>
<symbol id="ch-eye" viewBox="0 0 24 24">
  <path fill="none" stroke="currentColor" stroke-width="1.5" stroke-linecap="round" stroke-linejoin="round" d="M2 12s4.25-7 10-7 10 7 10 7-4.25 7-10 7S2 12 2 12z"/>
  <circle cx="12" cy="12" r="3" fill="none" stroke="currentColor" stroke-width="1.5"/>
</symbol>
<symbol id="ch-eye-off" viewBox="0 0 24 24">
  <path fill="none" stroke="currentColor" stroke-width="1.5" stroke-linecap="round" stroke-linejoin="round" d="M3 3l18 18"/>
  <path fill="none" stroke="currentColor" stroke-width="1.5" stroke-linecap="round" stroke-linejoin="round" d="M10.58 10.58a3 3 0 0 0 4.24 4.24"/>
  <path fill="none" stroke="currentColor" stroke-width="1.5" stroke-linecap="round" stroke-linejoin="round" d="M9.88 5.47A9.37 9.37 0 0 1 12 5c5.75 0 10 7 10 7a18.6 18.6 0 0 1-2.82 3.94M6.53 6.53A18.4 18.4 0 0 0 2 12s4.25 7 10 7a9.67 9.67 0 0 0 4.12-.93"/>
</symbol>
<symbol id="ch-dots-vertical" viewBox="0 0 24 24">
  <circle cx="12" cy="5.5" r="1" fill="none" stroke="currentColor" stroke-width="1.5"/>
  <circle cx="12" cy="12" r="1" fill="none" stroke="currentColor" stroke-width="1.5"/>
  <circle cx="12" cy="18.5" r="1" fill="none" stroke="currentColor" stroke-width="1.5"/>
</symbol>
</svg>
